<?xml version="1.0" encoding="UTF-8"?>
<!-- Generated by Pixelmator Pro 2.3.8 -->
<svg width="38" height="38" viewBox="0 0 38 38" xmlns="http://www.w3.org/2000/svg" xmlns:xlink="http://www.w3.org/1999/xlink">
    <path id="Path" fill="#141414" stroke="none" d="M 25.349199 12.1905 C 24.462601 5.54681 22.218 0 18.7698 0 C 15.3226 0 13.078 5.545849 12.1905 12.1905 C 5.54681 13.077 0 15.321701 0 18.7698 C 0 22.216999 5.54681 24.4617 12.1905 25.349199 C 13.077 31.991899 15.3217 37.5397 18.7698 37.5397 C 22.216999 37.5397 24.4617 31.9928 25.349199 25.349199 C 31.9928 24.4617 37.5397 22.218 37.5397 18.7698 C 37.5397 15.321701 31.991899 13.077 25.349199 12.1905 Z M 11.9744 23.4128 C 5.61116 22.493601 1.9008 20.3902 1.9008 18.7689 C 1.9008 17.1476 5.61212 15.0441 11.9744 14.124901 C 11.8342 15.6569 11.7612 17.2206 11.7612 18.7689 C 11.7612 20.3172 11.8342 21.882799 11.9744 23.4128 Z M 18.7708 1.899841 C 20.392099 1.899841 22.4956 5.61116 23.4147 11.9734 C 21.883699 11.8332 20.319099 11.760201 18.7708 11.760201 C 17.2225 11.760201 15.6579 11.8332 14.1268 11.9734 C 15.046 5.610199 17.1495 1.899841 18.7708 1.899841 Z M 25.5662 23.4128 C 25.253099 23.4589 23.968 23.608801 23.643299 23.641399 C 23.611601 23.966999 23.4599 25.2512 23.4147 25.564301 C 22.4956 31.9275 20.392099 35.638901 18.7708 35.638901 C 17.1495 35.638901 15.046 31.9275 14.1268 25.564301 C 14.0817 25.2512 13.9299 23.966101 13.8982 23.641399 C 13.7503 22.1334 13.661 20.5131 13.661 18.7689 C 13.661 17.0256 13.7503 15.405201 13.8982 13.895401 C 15.4062 13.7474 17.026501 13.6581 18.7708 13.6581 C 20.514099 13.6581 22.134399 13.7474 23.643299 13.895401 C 23.968901 13.927101 25.253099 14.0788 25.5662 14.124001 C 31.929501 15.0431 35.641701 17.1476 35.641701 18.7679 C 35.6408 20.388201 31.929501 22.493601 25.5662 23.4128 Z"/>
</svg>
